<mxfile host="app.diagrams.net" modified="2023-05-14T20:03:35.412Z" agent="Mozilla/5.0 (Windows NT 10.0; Win64; x64) AppleWebKit/537.36 (KHTML, like Gecko) Chrome/113.0.0.0 Safari/537.36 Edg/113.0.1774.42" etag="3MOeTZDxsDbanAkB8_Gs" version="21.3.0" type="github">
  <diagram name="第 1 页" id="UPcY0l5SIUCjvCihLifH">
    <mxGraphModel dx="1186" dy="788" grid="1" gridSize="10" guides="1" tooltips="1" connect="1" arrows="1" fold="1" page="1" pageScale="1" pageWidth="1169" pageHeight="827" math="0" shadow="0">
      <root>
        <mxCell id="0" />
        <mxCell id="1" parent="0" />
        <mxCell id="G0yzpTjNqxZT1KaMC6d--2" style="edgeStyle=orthogonalEdgeStyle;orthogonalLoop=1;jettySize=auto;html=1;entryX=0.5;entryY=1;entryDx=0;entryDy=0;curved=1;" edge="1" parent="1" source="G0yzpTjNqxZT1KaMC6d--1" target="G0yzpTjNqxZT1KaMC6d--3">
          <mxGeometry relative="1" as="geometry">
            <mxPoint x="400" y="400" as="targetPoint" />
          </mxGeometry>
        </mxCell>
        <mxCell id="G0yzpTjNqxZT1KaMC6d--5" style="edgeStyle=orthogonalEdgeStyle;orthogonalLoop=1;jettySize=auto;html=1;entryX=0.5;entryY=1;entryDx=0;entryDy=0;curved=1;" edge="1" parent="1" source="G0yzpTjNqxZT1KaMC6d--1" target="G0yzpTjNqxZT1KaMC6d--4">
          <mxGeometry relative="1" as="geometry" />
        </mxCell>
        <mxCell id="G0yzpTjNqxZT1KaMC6d--6" style="edgeStyle=orthogonalEdgeStyle;orthogonalLoop=1;jettySize=auto;html=1;entryX=0.5;entryY=1;entryDx=0;entryDy=0;curved=1;" edge="1" parent="1" source="G0yzpTjNqxZT1KaMC6d--1" target="G0yzpTjNqxZT1KaMC6d--7">
          <mxGeometry relative="1" as="geometry">
            <mxPoint x="540" y="340" as="targetPoint" />
          </mxGeometry>
        </mxCell>
        <mxCell id="G0yzpTjNqxZT1KaMC6d--1" value="&lt;div style=&quot;text-align: justify;&quot;&gt;&lt;span style=&quot;background-color: initial;&quot;&gt;&lt;br&gt;&lt;/span&gt;&lt;/div&gt;&lt;div style=&quot;text-align: justify;&quot;&gt;&lt;span style=&quot;background-color: initial;&quot;&gt;&lt;br&gt;&lt;/span&gt;&lt;/div&gt;&lt;div style=&quot;text-align: justify;&quot;&gt;&lt;span style=&quot;background-color: initial;&quot;&gt;&lt;br&gt;&lt;/span&gt;&lt;/div&gt;&lt;div style=&quot;text-align: justify;&quot;&gt;&lt;span style=&quot;background-color: initial;&quot;&gt;&lt;br&gt;&lt;/span&gt;&lt;/div&gt;&lt;div style=&quot;text-align: justify;&quot;&gt;&lt;span style=&quot;background-color: initial;&quot;&gt;&lt;br&gt;&lt;/span&gt;&lt;/div&gt;&lt;div style=&quot;text-align: justify;&quot;&gt;&lt;span style=&quot;background-color: initial;&quot;&gt;&lt;br&gt;&lt;/span&gt;&lt;/div&gt;&lt;div style=&quot;text-align: justify;&quot;&gt;&lt;span style=&quot;background-color: initial;&quot;&gt;用户&lt;/span&gt;&lt;/div&gt;" style="shape=actor;whiteSpace=wrap;html=1;align=center;" vertex="1" parent="1">
          <mxGeometry x="520" y="450" width="40" height="60" as="geometry" />
        </mxCell>
        <mxCell id="G0yzpTjNqxZT1KaMC6d--3" value="管理渠道账号" style="ellipse;whiteSpace=wrap;html=1;" vertex="1" parent="1">
          <mxGeometry x="250" y="330" width="120" height="80" as="geometry" />
        </mxCell>
        <mxCell id="G0yzpTjNqxZT1KaMC6d--8" style="edgeStyle=orthogonalEdgeStyle;orthogonalLoop=1;jettySize=auto;html=1;curved=1;" edge="1" parent="1" source="G0yzpTjNqxZT1KaMC6d--4" target="G0yzpTjNqxZT1KaMC6d--10">
          <mxGeometry relative="1" as="geometry">
            <mxPoint x="730" y="270" as="targetPoint" />
          </mxGeometry>
        </mxCell>
        <mxCell id="G0yzpTjNqxZT1KaMC6d--12" style="edgeStyle=orthogonalEdgeStyle;orthogonalLoop=1;jettySize=auto;html=1;entryX=0.5;entryY=1;entryDx=0;entryDy=0;curved=1;" edge="1" parent="1" source="G0yzpTjNqxZT1KaMC6d--4" target="G0yzpTjNqxZT1KaMC6d--13">
          <mxGeometry relative="1" as="geometry">
            <mxPoint x="790" y="300" as="targetPoint" />
          </mxGeometry>
        </mxCell>
        <mxCell id="G0yzpTjNqxZT1KaMC6d--15" style="edgeStyle=orthogonalEdgeStyle;orthogonalLoop=1;jettySize=auto;html=1;entryX=0.5;entryY=1;entryDx=0;entryDy=0;curved=1;" edge="1" parent="1" source="G0yzpTjNqxZT1KaMC6d--4" target="G0yzpTjNqxZT1KaMC6d--16">
          <mxGeometry relative="1" as="geometry">
            <mxPoint x="790" y="290" as="targetPoint" />
          </mxGeometry>
        </mxCell>
        <mxCell id="G0yzpTjNqxZT1KaMC6d--4" value="管理消息模板" style="ellipse;whiteSpace=wrap;html=1;" vertex="1" parent="1">
          <mxGeometry x="670" y="340" width="120" height="80" as="geometry" />
        </mxCell>
        <mxCell id="G0yzpTjNqxZT1KaMC6d--7" value="查看已发送的消息情况" style="ellipse;whiteSpace=wrap;html=1;" vertex="1" parent="1">
          <mxGeometry x="480" y="280" width="120" height="80" as="geometry" />
        </mxCell>
        <mxCell id="G0yzpTjNqxZT1KaMC6d--10" value="设置消息实时定时" style="ellipse;whiteSpace=wrap;html=1;" vertex="1" parent="1">
          <mxGeometry x="550" y="180" width="120" height="80" as="geometry" />
        </mxCell>
        <mxCell id="G0yzpTjNqxZT1KaMC6d--13" value="设置夜间屏蔽规则" style="ellipse;whiteSpace=wrap;html=1;" vertex="1" parent="1">
          <mxGeometry x="670" y="180" width="120" height="80" as="geometry" />
        </mxCell>
        <mxCell id="G0yzpTjNqxZT1KaMC6d--16" value="圈定发送人群" style="ellipse;whiteSpace=wrap;html=1;" vertex="1" parent="1">
          <mxGeometry x="790" y="180" width="120" height="80" as="geometry" />
        </mxCell>
      </root>
    </mxGraphModel>
  </diagram>
</mxfile>
